# xmcd
#
# Track frame offsets: 
#        150
#        13372
#        27765
#        46725
#        63384
#        77493
#        95936
#        113993
#        133664
#        152141
#        167376
#        184202
#        204267
#        217337
#        232903
#        242124
#        263151
#        283103
#
# Disc length: 3963 seconds
#
# Revision: 0
# Processed by: cddbd v1.5.2PL0 Copyright (c) Steve Scherf et al.
# Submitted via: ExactAudioCopyFreeDBPlugin 1.0
#
DISCID=fe0f7912
DTITLE=Maverick Music - Vol 3, Issue 119
DYEAR=2013
DGENRE=Americana
TTITLE0=Robert Vincent - Life in Easy Steps
TTITLE1=Dolly Parton - It's Too Late
TTITLE2=Niall Toner - Judge and Jury
TTITLE3=Buffy Lawson - I'm Leaving You For Me
TTITLE4=Andrew James O'Brian - City Song
TTITLE5=Bex Marshall - The House of Mercy
TTITLE6=Deborah Bonham - Take Me Down
TTITLE7=Pete Tindal - If I Lived Here
TTITLE8=Juliet and the Lonesome Romeos - No Regrets
TTITLE9=AJ Downing - My Wagon Just Won't Roll
TTITLE10=Blue Cactus Choir - Southern Bird
TTITLE11=Keyth Youngster - Superman
TTITLE12=Rebecca Pronsky - Better That Way
TTITLE13=Scott Kiers - Papercuts
TTITLE14=The Backyard Devils - Big Trucks and Steel Trains
TTITLE15=Linda Watkins - Balloons
TTITLE16=Jeff Larson - Long Lost Friend
TTITLE17=Jimmy LaFave - Clear Blue Sky
EXTD=
EXTT0=
EXTT1=
EXTT2=
EXTT3=
EXTT4=
EXTT5=
EXTT6=
EXTT7=
EXTT8=
EXTT9=
EXTT10=
EXTT11=
EXTT12=
EXTT13=
EXTT14=
EXTT15=
EXTT16=
EXTT17=
PLAYORDER=
